<?xml version="1.0" encoding="UTF-8"?><svg id="Layer_1" xmlns="http://www.w3.org/2000/svg" viewBox="0 0 650 650"><path d="m94.29,93.96c126.51-126.33,332.17-124.99,459.45,2.3,127.34,127.34,128.63,333.12,2.13,459.61-126.5,126.5-332.28,125.21-459.62-2.13C20.8,478.28-10.37,375.33,3.02,277.71c1.87-13.68,14.48-23.25,28.16-21.37,13.68,1.88,23.25,14.48,21.37,28.16-11.33,82.68,15.04,169.87,79.06,233.89,108.15,108.15,282.27,108.77,388.9,2.13,106.64-106.64,106.02-280.75-2.13-388.9-108.09-108.09-282.09-108.77-388.74-2.3l24.92.13c13.81.07,24.94,11.32,24.87,25.13-.07,13.81-11.32,24.94-25.13,24.87l-84.85-.43c-13.71-.07-24.81-11.17-24.87-24.87l-.43-84.85c-.07-13.81,11.07-25.06,24.87-25.13,13.81-.07,25.06,11.07,25.13,24.87l.12,24.92Z" style="fill:#231f20; fill-rule:evenodd; stroke-width:0px;"/><path d="m325,166.67c13.81,0,25,11.19,25,25v122.98l76.01,76.01c9.76,9.76,9.76,25.59,0,35.35s-25.59,9.76-35.35,0l-80.89-80.89c-6.25-6.25-9.76-14.73-9.76-23.57v-129.88c0-13.81,11.19-25,25-25Z" style="fill:#231f20; isolation:isolate; opacity:.5; stroke-width:0px;"/></svg>